<?xml version="1.0" encoding="UTF-8"?>
<svg width="300px" height="50px" viewBox="0 0 300 50" version="1.1" xmlns="http://www.w3.org/2000/svg" xmlns:xlink="http://www.w3.org/1999/xlink">
    <!-- Generator: Sketch 51.2 (57519) - http://www.bohemiancoding.com/sketch -->
    <title>an-ee-brand</title>
    <desc>Created with Sketch.</desc>
    <defs></defs>
    <g id="an-ee-brand" stroke="none" stroke-width="1" fill="none" fill-rule="evenodd">
        <g id="Group" transform="translate(1.000000, 3.000000)" fill="#FFFFFF">
            <path d="M31.987675,14.7043094 C32.3734071,13.792047 32.7732404,13.455 33.6,13.455 C33.915,13.455 34.545,13.77 34.545,14.4 C34.545,15.03 34.365,15.435 33.915,16.695 C33.645,17.415 33.06,19.395 32.97,19.665 C34.41,18.045 37.65,14.535 39.63,14.535 C40.62,14.535 41.385,15.165 41.385,16.245 C41.385,17.595 41.115,18.9 41.115,20.475 C41.115,21.87 41.205,23.085 42.06,23.085 C42.825,23.085 43.365,22.635 43.995,22.005 C44.58,21.42 45.075,20.925 45.57,20.925 C45.975,20.925 46.29,21.15 46.29,21.6 C46.29,22.095 45.75,22.635 45.03,23.31 C43.815,24.435 42.42,25.02 41.385,25.02 C39.135,25.02 38.73,22.95 38.73,20.97 C38.73,19.98 39,18.63 39,17.55 C39,17.325 38.865,17.055 38.595,17.055 C37.335,17.055 33.06,21.825 32.025,23.22 C31.575,23.805 31.17,25.785 30.405,25.785 C29.595,25.785 28.875,25.47 28.875,24.57 C28.875,23.5048471 30.4482437,19.2932067 31.3413075,16.5947007 C31.0276572,16.5318999 30.6980507,16.4499152 30.465,16.38 C29.835,16.2 29.115,16.02 27.81,15.84 C26.46,19.035 25.38,22.725 25.38,24.705 C25.38,25.29 25.605,25.92 25.605,26.64 C25.605,27.045 25.155,27.585 24.48,27.585 C23.715,27.585 22.815,26.91 22.815,25.515 C22.815,23.445 23.94,19.35 25.515,15.57 C23.895,15.39 22.68,15.255 21.6,15.21 C16.2,20.295 10.215,25.515 5.355,25.515 C1.62,25.515 0,23.445 0,21.96 C0,21.015 0.585,20.34 1.53,20.34 C2.61,20.34 2.7,21.105 2.7,21.78 C2.7,22.68 3.285,23.535 4.995,23.535 C9.315,23.535 14.175,19.17 18.855,15.075 C17.775,14.985 16.38,14.94 15.255,14.94 C11.34,14.94 9.765,15.75 9.315,16.29 C9,16.65 8.55,17.01 8.19,17.01 C7.47,17.01 7.065,16.47 7.065,15.795 C7.065,14.76 8.415,13.275 15.345,13.275 C17.1,13.275 18.99,13.32 20.655,13.41 C23.625,10.44 26.46,7.515 30.285,3.645 C31.995,1.89 33.21,0.675 34.2,0.675 C35.19,0.675 35.64,1.17 35.64,2.07 C35.64,2.745 35.01,3.465 34.2,4.545 C31.995,7.47 30.33,10.62 28.575,14.175 C28.575,14.175 30.42,14.49 30.96,14.535 C31.3584592,14.5776921 31.7029151,14.6293847 31.987675,14.7043094 Z M31.005,5.49 C29.385,7.245 26.1,10.8 23.175,13.68 C24.21,13.725 25.245,13.815 26.235,13.95 C27.27,11.835 29.115,8.415 31.005,5.49 Z" id="Combined-Shape"></path>
            <path d="M79.8077487,22.6167859 C78.0321202,24.1499071 76.1370624,25.38 74.82,25.38 C73.875,25.38 72.84,24.57 72.84,22.995 C72.84,22.5912385 72.9354338,22.0864294 73.0904324,21.53285 C68.6828866,26.4391109 63.6996333,31.14 58.815,31.14 C55.305,31.14 53.19,29.34 53.19,25.92 C53.19,21.195 58.095,16.74 61.83,14.4 C60.705,14.13 59.13,13.095 59.13,11.655 C59.13,6.975 68.58,0.36 74.34,0.36 C75.915,0.36 77.13,0.99 77.13,2.925 C77.13,5.04 73.485,9.18 71.505,9.18 C70.83,9.18 70.155,8.73 70.155,8.145 C70.155,7.56 70.29,7.245 71.505,6.66 C73.215,5.805 74.745,4.14 74.745,2.925 C74.745,2.655 74.385,2.43 74.07,2.43 C69.75,2.43 61.965,8.1 61.965,11.07 C61.965,11.88 62.91,12.375 64.125,12.375 C65.97,12.375 66.915,11.52 67.635,11.52 C68.355,11.52 69.03,11.655 69.03,12.87 C69.03,13.68 68.04,13.995 66.915,14.355 C66.06,14.67 64.575,15.3 63.45,16.02 C60.345,18 55.665,22.23 55.665,25.92 C55.665,27.27 56.52,28.98 59.085,28.98 C63.63,28.98 69.525,23.31 73.71,18.045 C74.0717084,17.602912 74.5052043,16.9454613 75.0425448,16.8099588 C75.2538898,16.3869293 75.4183291,16.073758 75.495,15.93 C76.035,15.03 76.485,14.31 77.115,14.31 C77.745,14.31 78.24,14.67 78.24,15.255 C78.24,15.885 77.925,16.2 77.655,16.605 C76.35,18.72 75.09,21.825 75.09,22.725 C75.09,23.04 75.315,23.445 75.72,23.445 C76.935,23.445 80.175,20.385 81.705,18.315 C82.0063212,17.9383485 82.3216539,17.5476855 82.6275428,17.2759246 C84.1378668,15.7257805 86.0526994,14.58 87.8550001,14.58 C89.2950001,14.58 90.2850001,15.795 90.5550001,16.155 C91.6350001,14.805 92.4450001,14.04 92.7150001,14.04 C93.3000001,14.04 94.1100001,14.31 94.1100001,14.985 C94.1100001,15.3 93.9300001,15.525 93.6150001,16.02 C93.3000001,16.515 92.7600001,17.235 92.4900001,18.315 C91.7700001,21.195 91.2300001,24.57 90.5550001,27.765 C92.4450001,27.765 94.3800001,27.81 94.3800001,29.07 C94.3800001,30.195 93.6150001,30.555 93.2100001,30.555 C92.7150001,30.555 92.3100001,30.24 92.0400001,29.97 C91.7700001,29.745 91.5450001,29.655 91.0950001,29.655 C90.9150001,29.655 90.5100001,29.7 90.0600001,29.745 C87.5850001,38.565 84.4350001,44.01 79.7550001,44.01 C78.0900001,44.01 76.5600001,42.795 76.5600001,40.455 C76.5600001,36.045 81.9600001,29.97 88.3050001,28.26 C88.9350001,25.47 89.5650001,21.69 89.7900001,19.98 C87.3600001,22.995 83.9400001,25.605 81.8700001,25.605 C80.8800001,25.605 79.8000001,24.57 79.8000001,22.86 C79.8000001,22.7799919 79.8026069,22.6988862 79.8077487,22.6167859 Z M79.8450001,42.12 C82.4550001,42.12 85.8750001,37.26 87.7650001,30.42 C83.2200001,32.13 78.7200001,36.63 78.7200001,40.68 C78.7200001,41.535 79.2150001,42.12 79.8450001,42.12 Z M89.0250001,17.775 C89.0250001,17.505 88.6650001,16.56 87.6300001,16.56 C84.9750001,16.56 82.0950001,21.15 82.0950001,22.545 C82.0950001,22.995 82.4100001,23.355 82.7700001,23.355 C84.1650001,23.355 89.0250001,18.675 89.0250001,17.775 Z" id="Combined-Shape"></path>
            <path d="M81.75,6.255 C82.29,6.255 82.83,6.525 82.83,7.605 C82.83,8.775 81.615,9.495 81.03,9.495 C80.31,9.495 80.04,8.55 80.04,7.875 C80.04,7.155 80.76,6.255 81.75,6.255 Z" id="Path"></path>
            <path d="M113.409601,16.9212068 C113.924777,15.779888 114.471144,14.645849 115.005,13.59 C112.845,13.59 112.35,13.275 112.35,12.555 C112.35,11.835 112.8,11.25 113.61,11.25 C114.06,11.25 114.42,11.61 114.96,11.61 C115.32,11.61 115.77,11.565 116.175,11.43 C117.75,8.685 118.47,7.2 119.28,6.12 C120.045,5.04 120.585,4.5 121.26,4.5 C122.07,4.5 122.385,4.86 122.385,5.535 C122.385,6.12 122.205,6.48 121.305,7.2 C120.675,7.65 119.775,9.225 118.65,11.52 C119.505,11.52 120.045,11.16 120.72,11.16 C121.44,11.16 121.62,11.61 121.62,12.24 C121.62,13.5 119.055,13.545 117.39,13.545 C114.87,18 112.8,22.545 112.8,24.84 C112.8,25.245 113.115,25.695 113.115,25.965 C113.115,26.37 112.71,27 112.035,27 C111.225,27 110.775,26.37 110.775,25.11 C110.775,24.1307204 111.146745,22.688656 111.725137,21.0517027 C109.730423,23.2736681 107.274025,25.515 105.345,25.515 C103.41,25.515 102.825,24.255 102.825,22.725 C102.825,21.465 103.5,20.025 103.5,18.765 C103.5,18.45 103.32,18.225 102.915,18.225 C101.07,18.225 97.0200001,22.455 96.3000001,24.705 C95.9850001,25.695 95.4000001,26.145 94.8150001,26.145 C94.1850001,26.145 93.6900001,25.515 93.6900001,24.57 C93.6900001,22.635 96.5250001,13.815 100.62,7.29 C103.455,2.745 106.515,0 108.63,0 C109.53,0 110.61,0.72 110.61,1.935 C110.61,3.33 109.89,6.3 106.74,10.035 C103.545,13.77 101.43,14.76 99.0000001,16.875 C98.4150001,17.37 97.7400001,19.035 97.4250001,19.935 C99.4950001,17.73 102.285,15.975 103.995,15.975 C105.48,15.975 105.975,16.695 105.975,17.865 C105.975,19.305 105.3,20.88 105.3,22.41 C105.3,23.13 105.615,23.49 106.02,23.49 C107.685,23.49 110.925,19.53 111.825,18.315 C112.352182,17.6560223 112.922253,16.9541556 113.409601,16.9212068 Z M99.4950064,14.0399861 C99.5044459,14.0344476 102.334573,12.3693774 105.075,9 C107.82,5.535 108.72,3.375 108.72,2.655 C108.72,2.34 108.495,2.115 108.135,2.115 C107.055,2.115 104.715,4.5 102.6,8.1 C99.9953704,12.5009259 99.4970461,14.0336915 99.4950064,14.0399861 Z" id="Combined-Shape"></path>
            <path d="M167.890783,17.3136998 C167.867933,16.7987884 167.76,16.4768942 167.76,16.155 C167.76,15.48 168.255,15.03 168.795,15.03 C169.47,15.03 170.145,15.615 170.145,16.875 C170.145,17.955 169.74,19.755 169.38,21.15 C169.2,21.825 169.02,22.725 169.02,22.815 C169.02,22.995 169.11,23.04 169.2,23.04 C170.235,23.04 174.51,17.415 174.51,13.23 C174.51,12.51 173.88,11.97 173.88,11.205 C173.88,10.62 174.33,10.035 174.915,10.035 C175.545,10.035 176.535,10.125 176.535,12.96 C176.535,17.055 171.63,25.245 168.48,25.245 C167.535,25.245 166.635,24.435 166.635,23.31 C166.635,22.86 166.905,21.96 167.175,21.15 C167.234452,20.9419184 167.293904,20.7313824 167.351734,20.5202158 C165.16927,22.9124983 161.961409,25.56 157.83,25.56 C156.351302,25.56 155.095698,24.3999092 155.085068,22.4351639 C153.262273,24.1117484 151.244542,25.515 149.7,25.515 C147.9,25.515 146.325,24.21 146.325,22.05 C146.325,21.8363775 146.334629,21.6124071 146.353255,21.3791609 C141.911923,26.3404678 136.875617,31.14 131.94,31.14 C128.43,31.14 126.315,29.34 126.315,25.92 C126.315,21.195 131.22,16.74 134.955,14.4 C133.83,14.13 132.255,13.095 132.255,11.655 C132.255,6.975 141.705,0.36 147.465,0.36 C149.04,0.36 150.255,0.99 150.255,2.925 C150.255,5.04 146.61,9.18 144.63,9.18 C143.955,9.18 143.28,8.73 143.28,8.145 C143.28,7.56 143.415,7.245 144.63,6.66 C146.34,5.805 147.87,4.14 147.87,2.925 C147.87,2.655 147.51,2.43 147.195,2.43 C142.875,2.43 135.09,8.1 135.09,11.07 C135.09,11.88 136.035,12.375 137.25,12.375 C139.095,12.375 140.04,11.52 140.76,11.52 C141.48,11.52 142.155,11.655 142.155,12.87 C142.155,13.68 141.165,13.995 140.04,14.355 C139.185,14.67 137.7,15.3 136.575,16.02 C133.47,18 128.79,22.23 128.79,25.92 C128.79,27.27 129.645,28.98 132.21,28.98 C136.755,28.98 142.65,23.31 146.835,18.045 C146.923906,17.9363376 147.017148,17.8146641 147.115204,17.6909283 C148.178308,14.1088905 150.135111,9.88695308 151.86,6.93 C154.56,2.34 156.585,0.135 159.15,0.135 C160.23,0.135 160.95,1.035 160.95,1.98 C160.95,3.285 160.32,6.03 157.08,10.17 C154.56,13.365 152.4,15.255 150.015,17.145 C149.295,18.405 148.665,20.88 148.665,21.825 C148.665,22.95 149.16,23.58 150.015,23.58 C151.815,23.58 155.145,20.385 156.675,18.315 C156.998135,17.9110815 157.337383,17.4910493 157.663818,17.2188234 C159.293271,15.3347423 161.262211,14.4 162.87,14.4 C163.815,14.4 164.85,15.12 164.85,16.11 C164.85,18.45 161.07,21.105 158.1,21.78 C157.515,21.915 157.335,22.23 157.335,22.545 C157.335,22.905 157.74,23.76 158.595,23.76 C162.375,23.76 165.39,20.295 167.01,18.315 C167.297628,17.9554656 167.598022,17.5831644 167.890783,17.3136998 Z M158.34,2.34 C157.8,2.34 155.82,3.915 153.57,7.92 C151.725,11.205 151.14,12.96 150.87,13.95 C151.77,13.23 153.66,11.34 155.505,8.865 C157.89,5.715 158.79,3.69 158.79,2.745 C158.79,2.475 158.655,2.34 158.34,2.34 Z M162.285,16.425 C161.205,16.425 158.82,18.81 157.965,20.16 C159.585,19.845 162.645,17.64 162.645,16.875 C162.645,16.605 162.555,16.425 162.285,16.425 Z" id="Combined-Shape"></path>
            <path d="M187.95467,17.7101166 C188.14633,17.150395 188.324591,16.6220601 188.475,16.155 C189.105,14.13 189.42,13.455 190.59,13.455 C190.905,13.455 191.535,13.77 191.535,14.4 C191.535,15.03 191.355,15.435 190.905,16.695 C190.635,17.415 190.05,19.395 189.96,19.665 C191.4,18.045 194.64,14.535 196.62,14.535 C197.61,14.535 198.375,15.165 198.375,16.245 C198.375,17.595 198.105,18.9 198.105,20.475 C198.105,21.87 198.195,23.085 199.05,23.085 C199.815,23.085 200.355,22.635 200.985,22.005 C201.57,21.42 202.065,20.925 202.56,20.925 C202.965,20.925 203.28,21.15 203.28,21.6 C203.28,22.095 202.74,22.635 202.02,23.31 C200.805,24.435 199.41,25.02 198.375,25.02 C196.125,25.02 195.72,22.95 195.72,20.97 C195.72,19.98 195.99,18.63 195.99,17.55 C195.99,17.325 195.855,17.055 195.585,17.055 C194.325,17.055 190.05,21.825 189.015,23.22 C188.565,23.805 188.16,25.785 187.395,25.785 C186.585,25.785 185.865,25.47 185.865,24.57 C185.865,24.1053042 186.16444,23.0417289 186.576203,21.7661938 C184.479994,23.7471605 181.69369,25.56 178.275,25.56 C176.79,25.56 175.53,24.39 175.53,22.41 C175.53,22.14 175.305,22.005 175.305,21.51 C175.305,21.06 175.71,20.52 176.16,20.385 C177.87,16.38 180.975,14.4 183.315,14.4 C184.26,14.4 185.295,15.12 185.295,16.11 C185.295,18.45 181.515,21.105 178.545,21.78 C177.96,21.915 177.78,22.23 177.78,22.545 C177.78,22.905 178.185,23.76 179.04,23.76 C182.82,23.76 185.835,20.295 187.455,18.315 C187.618676,18.1104056 187.786485,17.9016769 187.95467,17.7101166 Z M182.73,16.425 C181.65,16.425 179.265,18.81 178.41,20.16 C180.03,19.845 183.09,17.64 183.09,16.875 C183.09,16.605 183,16.425 182.73,16.425 Z" id="Combined-Shape"></path>
            <path d="M238.808261,15.2227273 C239.076656,14.5773548 239.386122,14.22 239.91,14.22 C240.495,14.22 240.9,14.535 240.9,15.03 C240.9,15.345 240.54,16.335 240.135,17.37 C241.98,15.48 243.645,14.04 244.815,14.04 C245.805,14.04 246.525,14.625 246.525,15.75 C246.525,17.28 246.165,18.585 244.86,18.585 C244.365,18.585 243.96,18.225 243.96,17.685 C243.96,17.28 244.275,16.695 244.275,16.47 C244.275,16.335 244.23,16.245 244.005,16.245 C243.42,16.245 240.54,18.99 239.055,21.15 C238.65,21.735 238.155,22.725 237.75,23.715 C237.39,24.615 236.985,25.47 236.715,25.47 C236.175,25.47 235.545,24.975 235.545,24.345 C235.545,23.85 236.175,22.005 236.895,20.34 C237.375328,19.2098161 237.802435,18.1328537 238.109487,17.2873351 C237.258878,17.3197707 235.588502,17.4627498 233.715,17.775 C233.805,18.27 233.895,18.855 233.895,19.35 C233.895,26.865 222.69,36.495 213.645,36.495 C210.27,36.495 208.425,34.56 208.425,31.905 C208.425,28.395 212.565,24.615 217.2,21.69 C217.74,19.62 218.775,16.695 220.71,13.23 C224.265,6.75 227.01,4.635 227.82,4.635 C228.585,4.635 229.035,5.22 229.035,5.85 C229.035,6.345 228.405,7.02 227.685,7.74 C226.515,8.865 224.58,10.89 222.915,13.815 C221.52,16.29 220.485,18.63 219.9,20.34 C223.995,18.225 227.46,17.19 230.25,16.515 C229.485,15.885 228.36,15.435 226.92,15.435 C225.39,15.435 224.895,15.66 224.58,15.66 C223.995,15.66 223.77,15.345 223.77,14.85 C223.77,13.68 224.4,13.635 226.2,13.095 C229.395,12.15 234.57,8.775 234.57,4.815 C234.57,3.15 232.95,2.61 231.06,2.61 C223.185,2.61 210.99,10.665 210.99,15.03 C210.99,15.435 211.35,15.795 211.35,16.245 C211.35,17.01 210.495,17.685 209.685,17.685 C208.83,17.685 208.335,17.055 208.335,15.885 C208.335,9.18 221.205,0.72 231.735,0.72 C235.785,0.72 237.18,2.43 237.18,4.275 C237.18,7.83 234.255,11.565 230.16,13.815 C230.88,14.085 232.05,14.85 232.905,16.02 C235.515,15.525 237.45,15.21 238.395,15.21 C238.539484,15.21 238.677525,15.2140269 238.808261,15.2227273 Z M231.33,19.485 C231.33,19.125 231.33,18.675 231.24,18.315 C228.315,18.945 224.445,19.935 219.18,23.04 C219.045,23.94 219,24.75 219,25.56 C219,26.055 218.91,27.045 218.145,27.045 C217.47,27.045 216.57,26.505 216.57,25.515 C216.57,25.425 216.57,24.885 216.66,24.48 C213.06,26.91 210.54,29.745 210.54,31.95 C210.54,33.705 212.295,34.515 213.96,34.515 C221.025,34.515 231.33,26.055 231.33,19.485 Z" id="Combined-Shape"></path>
            <path d="M276.503383,22.7892411 C275.144327,24.0671454 273.745526,25.02 272.55,25.02 C270.3,25.02 269.895,22.95 269.895,20.97 C269.895,19.98 270.165,18.63 270.165,17.55 C270.165,17.325 270.03,17.055 269.76,17.055 C268.5,17.055 264.225,21.825 263.19,23.22 C262.74,23.805 262.335,25.785 261.57,25.785 C260.76,25.785 260.04,25.47 260.04,24.57 C260.04,24.0958463 260.351753,22.9981872 260.776482,21.6880512 C258.920856,23.4789227 256.835808,25.02 255.285,25.02 C253.8,25.02 253.08,23.985 253.08,22.725 C253.08,22.23 253.125,21.78 253.17,21.15 C251.865,22.455 248.805,25.515 246.78,25.515 C246.195,25.515 245.25,24.705 245.25,23.535 C245.25,18.9 250.47,14.4 253.89,14.4 C254.61,14.4 255.285,14.85 255.735,15.39 C255.87,15.39 256.365,14.49 257.04,14.49 C257.895,14.49 258.39,14.985 258.39,15.615 C258.39,16.38 256.77,18.315 256.23,19.485 C255.78,20.385 255.42,21.375 255.42,22.005 C255.42,22.455 255.6,22.95 256.005,22.95 C257.49,22.95 260.01,20.25 261.63,18.315 C261.793676,18.1104056 261.961486,17.9016769 262.12967,17.7101166 C262.32133,17.150395 262.499591,16.6220601 262.65,16.155 C263.28,14.13 263.595,13.455 264.765,13.455 C265.08,13.455 265.71,13.77 265.71,14.4 C265.71,15.03 265.53,15.435 265.08,16.695 C264.81,17.415 264.225,19.395 264.135,19.665 C265.575,18.045 268.815,14.535 270.795,14.535 C271.785,14.535 272.55,15.165 272.55,16.245 C272.55,17.595 272.28,18.9 272.28,20.475 C272.28,21.87 272.37,23.085 273.225,23.085 C274.26,23.085 276.735,20.385 278.265,18.315 C278.675145,17.8023191 279.111249,17.2636785 279.514162,17.0342687 C280.926496,15.5124282 282.586841,14.4 283.92,14.4 C285.135,14.4 285.855,14.895 286.26,15.12 C286.755,13.005 287.7,10.035 289.455,6.3 C291.345,2.295 293.775,0.495 295.395,0.495 C296.7,0.495 297.42,1.395 297.42,2.745 C297.42,4.365 296.655,6.705 294.36,10.35 C292.605,13.14 290.49,15.57 289.23,17.01 C288.555,17.775 287.925,18.405 287.79,18.81 C287.385,19.62 287.205,20.7 287.205,21.87 C287.205,22.815 287.295,25.11 288.285,25.335 C288.735,25.425 289.185,25.515 289.185,25.92 C289.185,26.37 288.51,27 287.52,27 C285.36,27 284.955,24.255 284.955,22.05 C282.975,24.21 280.32,25.695 278.88,25.695 C277.98,25.695 276.495,24.975 276.495,23.04 C276.495,22.9576748 276.497826,22.8740496 276.503383,22.7892411 Z M253.305,16.515 C251.505,16.515 247.68,20.655 247.68,22.725 C247.68,22.95 247.86,23.085 248.085,23.085 C248.76,23.085 254.295,18.27 254.295,17.415 C254.295,16.92 253.89,16.515 253.305,16.515 Z M294.81,2.61 C294.45,2.61 293.1,3.87 291.255,7.515 C289.86,10.305 288.555,14.985 288.555,14.985 C289.41,13.995 291.3,11.79 292.83,9.045 C294.72,5.67 295.35,4.32 295.35,3.105 C295.35,2.745 295.215,2.61 294.81,2.61 Z M283.92,16.65 C281.94,16.785 278.835,21.015 278.835,22.635 C278.835,23.22 279.195,23.535 279.6,23.535 C280.995,23.535 285.09,19.26 285.36,17.955 C285.09,17.865 284.73,17.685 284.685,17.19 C284.64,16.83 284.28,16.65 283.92,16.65 Z" id="Combined-Shape"></path>
        </g>
    </g>
</svg>