<?xml version="1.0" encoding="UTF-8"?>
<svg width="86px" height="73px" viewBox="0 0 86 73" version="1.1" xmlns="http://www.w3.org/2000/svg" xmlns:xlink="http://www.w3.org/1999/xlink">
    <!-- Generator: Sketch 51.3 (57544) - http://www.bohemiancoding.com/sketch -->
    <title>Group 6</title>
    <desc>Created with Sketch.</desc>
    <defs>
        <polygon id="path-1" points="0.484903365 1.25758929 23.6347457 1.25758929 23.6347457 23.4057589 0.484903365 23.4057589"></polygon>
    </defs>
    <g id="Welcome" stroke="none" stroke-width="1" fill="none" fill-rule="evenodd">
        <g id="1376_LP#1---Design-[R2]-v2" transform="translate(-677.000000, -931.000000)">
            <g id="Group-15" transform="translate(560.000000, 930.000000)">
                <g id="Group-6" transform="translate(117.000000, 0.000000)">
                    <path d="M83.0357143,70.408125 C83.0357143,70.764375 82.734375,71.064375 82.3794643,71.064375 L61.5683036,71.064375 C61.6928571,70.6826786 61.7799107,70.2822321 61.7799107,69.8590179 L61.7799107,64.7991964 C61.7799107,63.0795536 61.4598214,61.4375893 60.9026786,59.9094643 C62.5366071,58.38 64.6526786,57.5375893 66.9375,57.5375893 L74.15625,57.5375893 C79.0526786,57.5375893 83.0357143,61.520625 83.0357143,66.4170536 L83.0357143,70.408125 Z M27.8303571,71.064375 C27.1660714,71.064375 26.6263393,70.5233036 26.6263393,69.8590179 L26.6263393,64.7991964 C26.6263393,58.3733036 31.8535714,53.1447321 38.2794643,53.1447321 L47.4482143,53.1447321 C53.8741071,53.1447321 59.1013393,58.3733036 59.1013393,64.7991964 L59.1013393,69.8590179 C59.1013393,70.5233036 58.5602679,71.064375 57.8959821,71.064375 L28.2642857,71.064375 L27.8303571,71.064375 Z M2.67857143,70.408125 L2.67857143,66.4170536 C2.67857143,61.520625 6.66830357,57.5375893 11.5727679,57.5375893 L18.7901786,57.5375893 C21.0401786,57.5375893 23.1991071,58.39875 24.825,59.908125 C24.2665179,61.43625 23.9477679,63.0795536 23.9477679,64.7991964 L23.9477679,69.8590179 C23.9477679,70.2822321 24.0321429,70.6826786 24.1580357,71.064375 L3.34821429,71.064375 C2.97991071,71.064375 2.67857143,70.7710714 2.67857143,70.408125 Z M8.04910714,47.7166071 C8.04910714,43.7817857 11.25,40.5808929 15.1848214,40.5808929 C19.1196429,40.5808929 22.3205357,43.7817857 22.3205357,47.7166071 C22.3205357,51.6500893 19.1196429,54.8523214 15.1848214,54.8523214 C11.25,54.8523214 8.04910714,51.6500893 8.04910714,47.7166071 Z M33.4379464,41.0416071 C33.4379464,35.8451786 37.6660714,31.6170536 42.8638393,31.6170536 C48.0602679,31.6170536 52.2883929,35.8451786 52.2883929,41.0416071 C52.2883929,46.2380357 48.0602679,50.4661607 42.8638393,50.4661607 C37.6660714,50.4661607 33.4379464,46.2380357 33.4379464,41.0416071 Z M63.4058036,47.7166071 C63.4058036,43.7817857 66.6066964,40.5808929 70.5415179,40.5808929 C74.4763393,40.5808929 77.6785714,43.7817857 77.6785714,47.7166071 C77.6785714,51.6500893 74.4763393,54.8523214 70.5415179,54.8523214 C66.6066964,54.8523214 63.4058036,51.6500893 63.4058036,47.7166071 Z M76.8803571,55.1965179 C79.003125,53.3938393 80.3571429,50.71125 80.3571429,47.7166071 C80.3571429,42.3045536 75.9535714,37.9023214 70.5415179,37.9023214 C65.1308036,37.9023214 60.7272321,42.3045536 60.7272321,47.7166071 C60.7272321,50.7139286 62.08125,53.3978571 64.2053571,55.1991964 C62.5620536,55.5983036 61.0245536,56.3536607 59.7066964,57.4116964 C57.6308036,53.983125 54.1714286,51.4880357 50.0973214,50.7219643 C53.0464286,48.5121429 54.9669643,45.001875 54.9669643,41.0416071 C54.9669643,34.3679464 49.5375,28.9384821 42.8638393,28.9384821 C36.1888393,28.9384821 30.759375,34.3679464 30.759375,41.0416071 C30.759375,45.001875 32.6785714,48.5121429 35.6290179,50.7219643 C31.55625,51.4880357 28.0955357,53.9817857 26.0209821,57.4116964 C24.7004464,56.3536607 23.1642857,55.5983036 21.5196429,55.1991964 C23.6450893,53.3965179 24.9991071,50.7125893 24.9991071,47.7166071 C24.9991071,42.3045536 20.596875,37.9023214 15.1848214,37.9023214 C9.77276786,37.9023214 5.37053571,42.3045536 5.37053571,47.7166071 C5.37053571,50.71125 6.72321429,53.3938393 8.84464286,55.1965179 C3.778125,56.4246429 0,60.9822321 0,66.4170536 L0,70.408125 C0,72.2469643 1.50267857,73.7429464 3.34821429,73.7429464 L27.8303571,73.7429464 L28.2642857,73.7429464 L57.8959821,73.7429464 L82.3794643,73.7429464 C84.2183036,73.7429464 85.7142857,72.2469643 85.7142857,70.408125 L85.7142857,66.4170536 C85.7142857,60.9822321 81.9415179,56.4259821 76.8803571,55.1965179 Z" id="Fill-1" fill="#F18A00"></path>
                    <g id="Group-5" transform="translate(30.803571, 0.082366)">
                        <mask id="mask-2" fill="white">
                            <use xlink:href="#path-1"></use>
                        </mask>
                        <g id="Clip-4"></g>
                        <path d="M9.64299107,11.3722768 C10.2242411,11.3722768 10.7371875,10.9986161 10.9166518,10.4468304 L12.0604018,6.93120536 L13.2014732,10.4468304 C13.3809375,10.9986161 13.8965625,11.3722768 14.4751339,11.3722768 L18.1729018,11.3722768 L15.1822768,13.5459375 C14.7121875,13.8861161 14.5166518,14.4914732 14.6947768,15.0419196 L15.8371875,18.5588839 L12.8479018,16.3865625 C12.3778125,16.0437054 11.7416518,16.0437054 11.2729018,16.3865625 L8.2809375,18.5588839 L9.42334821,15.0419196 C9.6028125,14.4901339 9.4059375,13.8861161 8.9371875,13.5459375 L5.94522321,11.3722768 L9.64299107,11.3722768 Z M6.57602679,15.1396875 L4.45995536,21.6526339 C4.28049107,22.2044196 4.47736607,22.8084375 4.94611607,23.1486161 C5.18183036,23.3200446 5.45772321,23.4044196 5.73361607,23.4044196 C6.00950893,23.4044196 6.28674107,23.3200446 6.52111607,23.1486161 L12.0604018,19.1254018 L17.5970089,23.1486161 C18.0670982,23.4914732 18.7032589,23.4914732 19.1720089,23.1486161 C19.6420982,22.8084375 19.8376339,22.2030804 19.6595089,21.6526339 L17.5434375,15.1396875 L23.0827232,11.1164732 C23.5528125,10.7762946 23.7483482,10.1722768 23.5688839,9.61915179 C23.3907589,9.06736607 22.8751339,8.69370536 22.2952232,8.69370536 L15.4487946,8.69370536 L13.3340625,2.1834375 C13.1545982,1.63165179 12.6389732,1.25665179 12.0604018,1.25665179 C11.4791518,1.25665179 10.9648661,1.63165179 10.7867411,2.1834375 L8.66933036,8.69370536 L1.82424107,8.69370536 C1.24433036,8.69370536 0.730044643,9.06736607 0.550580357,9.61915179 C0.371116071,10.1709375 0.567991071,10.7762946 1.03674107,11.1164732 L6.57602679,15.1396875 Z" id="Fill-3" fill="#F18A00" mask="url(#mask-2)"></path>
                    </g>
                </g>
            </g>
        </g>
    </g>
</svg>