<?xml version="1.0" encoding="UTF-8"?>
<svg width="74px" height="75px" viewBox="0 0 74 75" version="1.1" xmlns="http://www.w3.org/2000/svg" xmlns:xlink="http://www.w3.org/1999/xlink">
    <!-- Generator: Sketch 51.3 (57544) - http://www.bohemiancoding.com/sketch -->
    <title>Group 20</title>
    <desc>Created with Sketch.</desc>
    <defs>
        <polygon id="path-1" points="0.000555555556 1.22986111 73.7708333 1.22986111 73.7708333 46.85625 0.000555555556 46.85625"></polygon>
    </defs>
    <g id="Welcome" stroke="none" stroke-width="1" fill="none" fill-rule="evenodd">
        <g id="1376_LP#1---Design-[R2]-v2" transform="translate(-313.000000, -931.000000)">
            <g id="Group-16" transform="translate(203.000000, 930.000000)">
                <g id="Group-20" transform="translate(110.000000, 0.000000)">
                    <path d="M22.6181944,69.7905556 L34.5418056,64.9002778 L39.2265278,64.9002778 L51.1515278,69.7905556 C51.2334722,71.1238889 52.3431944,72.185 53.6973611,72.185 L54.1695833,72.185 L54.1695833,72.3822222 L36.8848611,72.3822222 L19.6001389,72.3822222 L19.6001389,72.185 L20.07375,72.185 C21.4279167,72.185 22.53625,71.1238889 22.6181944,69.7905556 Z M35.6584722,62.1225 L38.1126389,62.1225 L38.1126389,54.8877778 L35.6584722,54.8877778 L35.6584722,62.1225 Z M54.3973611,69.4072222 L53.9154167,69.4072222 C53.8320833,68.4627778 53.2334722,67.6405556 52.3418056,67.2738889 L40.8890278,62.5780556 L40.8890278,53.4988889 C40.8890278,52.7322222 40.2668056,52.11 39.5001389,52.11 L34.2695833,52.11 C33.5029167,52.11 32.8806944,52.7322222 32.8806944,53.4988889 L32.8806944,62.5780556 L21.4279167,67.2738889 C20.5376389,67.6405556 19.9376389,68.4627778 19.8543056,69.4072222 L19.3723611,69.4072222 C17.9654167,69.4072222 16.8223611,70.5502778 16.8223611,71.9558333 L16.8223611,72.6113889 C16.8223611,74.0169444 17.9654167,75.16 19.3723611,75.16 L36.8848611,75.16 L54.3973611,75.16 C55.8043056,75.16 56.9473611,74.0169444 56.9473611,72.6113889 L56.9473611,71.9558333 C56.9473611,70.5502778 55.8043056,69.4072222 54.3973611,69.4072222 Z" id="Fill-1" fill="#F18A00"></path>
                    <path d="M39.5005556,50.3352778 L34.2686111,50.3352778 C33.9811111,50.3352778 33.7227778,50.1575 33.6213889,49.8866667 L31.9088889,45.3963889 C31.7727778,45.0380556 31.9505556,44.6366667 32.3102778,44.5019444 C32.6686111,44.3644444 33.07,44.5436111 33.2061111,44.9033333 L34.7477778,48.9463889 L39.0213889,48.9463889 L40.5644444,44.9019444 C40.6991667,44.5408333 41.1047222,44.3644444 41.4588889,44.4991667 C41.8186111,44.6352778 41.9977778,45.0366667 41.8602778,45.395 L40.1491667,49.8866667 C40.0477778,50.1575 39.7880556,50.3352778 39.5005556,50.3352778" id="Fill-3" fill="#F18A00"></path>
                    <path d="M39.5005556,51.0297222 L34.2686111,51.0297222 C33.695,51.0297222 33.1727778,50.6686111 32.9713889,50.1338889 L31.2602778,45.6436111 C31.1283333,45.2977778 31.1380556,44.92 31.2908333,44.5797222 C31.4422222,44.2408333 31.7172222,43.9838889 32.0644444,43.8519444 C32.4102778,43.7213889 32.7880556,43.7325 33.1269444,43.8838889 C33.4658333,44.0352778 33.7241667,44.3102778 33.8561111,44.6575 L35.2269444,48.2519444 L38.5436111,48.2519444 L39.9158333,44.6547222 C40.045,44.3102778 40.3033333,44.0352778 40.6408333,43.8838889 C40.9811111,43.7283333 41.3616667,43.7158333 41.7075,43.8519444 C42.0519444,43.9825 42.3269444,44.2394444 42.4797222,44.5783333 C42.6311111,44.9186111 42.6422222,45.2963889 42.5088889,45.6436111 L40.7977778,50.1338889 C40.5963889,50.6686111 40.0741667,51.0297222 39.5005556,51.0297222 Z" id="Fill-5" fill="#F18A00"></path>
                    <path d="M32.7405556,50.3352778 C32.3169444,50.3352778 31.9738889,50.6797222 31.9738889,51.1019444 L31.9738889,52.0366667 C31.9738889,52.4588889 32.3169444,52.8033333 32.7405556,52.8033333 L41.0308333,52.8033333 C41.4530556,52.8033333 41.7975,52.4588889 41.7975,52.0366667 L41.7975,51.1019444 C41.7975,50.6797222 41.4530556,50.3352778 41.0308333,50.3352778 L32.7405556,50.3352778 Z M41.0308333,54.1922222 L32.7405556,54.1922222 C31.5530556,54.1922222 30.585,53.2255556 30.585,52.0366667 L30.585,51.1019444 C30.585,49.9130556 31.5530556,48.9463889 32.7405556,48.9463889 L41.0308333,48.9463889 C42.2183333,48.9463889 43.1863889,49.9130556 43.1863889,51.1019444 L43.1863889,52.0366667 C43.1863889,53.2255556 42.2183333,54.1922222 41.0308333,54.1922222 Z" id="Fill-7" fill="#F18A00"></path>
                    <path d="M41.0304167,48.2519444 L32.7401389,48.2519444 C31.1693056,48.2519444 29.8901389,49.5311111 29.8901389,51.1033333 L29.8901389,52.0366667 C29.8901389,53.6075 31.1693056,54.8866667 32.7401389,54.8866667 L41.0304167,54.8866667 C42.60125,54.8866667 43.8804167,53.6075 43.8804167,52.0366667 L43.8804167,51.1033333 C43.8804167,49.5311111 42.60125,48.2519444 41.0304167,48.2519444 Z M32.6679167,51.1033333 C32.6679167,51.0630556 32.70125,51.0297222 32.7401389,51.0297222 L41.1026389,51.1033333 L41.0304167,52.1088889 L32.6679167,52.0366667 L32.6679167,51.1033333 Z" id="Fill-9" fill="#F18A00"></path>
                    <path d="M36.8855556,42.1491667 C36.5022222,42.1491667 36.1911111,41.8394444 36.1911111,41.4547222 C36.1911111,41.0713889 36.5022222,40.7602778 36.8855556,40.7602778 C39.055,40.7602778 41.1466667,40.3005556 43.0994444,39.395 C43.4494444,39.2311111 43.8591667,39.3852778 44.0216667,39.7311111 C44.1827778,40.0797222 44.0327778,40.4922222 43.6855556,40.6533333 C41.5466667,41.6463889 39.2591667,42.1491667 36.8855556,42.1491667" id="Fill-11" fill="#F18A00"></path>
                    <path d="M48.5540278,37.5315278 C48.9581944,37.5315278 49.3401389,37.3565278 49.60125,37.05375 C52.2734722,33.9870833 53.7443056,30.0565278 53.7443056,25.9856944 C53.7443056,25.2190278 53.1220833,24.5968056 52.3554167,24.5968056 C51.5901389,24.5968056 50.9665278,25.2190278 50.9665278,25.9856944 C50.9665278,29.3856944 49.73875,32.6690278 47.5068056,35.2301389 C47.2623611,35.5093056 47.1415278,35.8676389 47.1679167,36.2370833 C47.1943056,36.6079167 47.3623611,36.9468056 47.6415278,37.1884722 C47.8929167,37.4093056 48.2179167,37.5315278 48.5540278,37.5315278" id="Fill-13" fill="#F18A00"></path>
                    <path d="M36.8855556,42.8443056 C39.3619444,42.8443056 41.7480556,42.3193056 43.9772222,41.2831944 C44.6702778,40.9623611 44.9730556,40.1345833 44.6508333,39.4373611 C44.4938889,39.10125 44.2133333,38.8443056 43.8633333,38.7179167 C43.5202778,38.5943056 43.1411111,38.6068056 42.8063889,38.7651389 C40.9466667,39.6290278 38.9536111,40.0665278 36.8855556,40.0665278 C36.1188889,40.0665278 35.4966667,40.68875 35.4966667,41.4554167 C35.4966667,42.2220833 36.1188889,42.8443056 36.8855556,42.8443056" id="Fill-15" fill="#F18A00"></path>
                    <g id="Group-19" transform="translate(0.000000, 0.160000)">
                        <mask id="mask-2" fill="white">
                            <use xlink:href="#path-1"></use>
                        </mask>
                        <g id="Clip-18"></g>
                        <path d="M16.1783333,29.3840278 L6.75888889,24.7673611 C4.34083333,23.58125 2.77833333,21.0756944 2.77833333,18.38125 C2.77833333,14.4590278 5.96722222,11.26875 9.88944444,11.26875 L15.8533333,11.26875 L15.8533333,25.8243056 C15.8533333,27.0409722 15.9783333,28.2243056 16.1783333,29.3840278 Z M55.1394444,7.57013889 L55.1394444,25.8243056 C55.1394444,35.8909722 46.9505556,44.0784722 36.8852778,44.0784722 C26.82,44.0784722 18.6311111,35.8909722 18.6311111,25.8243056 L18.6311111,7.57013889 L55.1394444,7.57013889 Z M57.5908333,29.3840278 C57.7908333,28.2256944 57.9172222,27.0409722 57.9172222,25.8243056 L57.9172222,11.26875 L63.8811111,11.26875 C67.8033333,11.26875 70.9936111,14.4590278 70.9936111,18.38125 C70.9936111,21.0743056 69.4311111,23.58125 67.0130556,24.7673611 L57.5908333,29.3840278 Z M63.8811111,8.49097222 L57.9172222,8.49097222 L57.9172222,7.57013889 L58.4672222,7.57013889 C60.2158333,7.57013889 61.6366667,6.14930556 61.6366667,4.40069444 C61.6366667,2.65208333 60.2158333,1.22986111 58.4672222,1.22986111 L33.2991667,1.22986111 C32.5325,1.22986111 31.9102778,1.85208333 31.9102778,2.61875 C31.9102778,3.38402778 32.5325,4.00763889 33.2991667,4.00763889 L58.4672222,4.00763889 C58.6838889,4.00763889 58.8588889,4.18263889 58.8588889,4.40069444 C58.8588889,4.61597222 58.6838889,4.79236111 58.4672222,4.79236111 L56.5283333,4.79236111 L17.2422222,4.79236111 L15.3033333,4.79236111 C15.0866667,4.79236111 14.9102778,4.61597222 14.9102778,4.40069444 C14.9102778,4.18263889 15.0866667,4.00763889 15.3033333,4.00763889 L25.7213889,4.00763889 C26.4880556,4.00763889 27.1102778,3.38402778 27.1102778,2.61875 C27.1102778,1.85208333 26.4880556,1.22986111 25.7213889,1.22986111 L15.3033333,1.22986111 C13.5547222,1.22986111 12.1325,2.65208333 12.1325,4.40069444 C12.1325,6.14930556 13.5547222,7.57013889 15.3033333,7.57013889 L15.8533333,7.57013889 L15.8533333,8.49097222 L9.88944444,8.49097222 C4.43666667,8.49097222 0.000555555556,12.9270833 0.000555555556,18.38125 C0.000555555556,22.1256944 2.17277778,25.6118056 5.53805556,27.2631944 L17.1186111,32.9381944 C20.0436111,41.0395833 27.7866667,46.85625 36.8852778,46.85625 C45.9825,46.85625 53.7255556,41.0395833 56.6519444,32.9395833 L68.2325,27.2631944 C71.5977778,25.6118056 73.7713889,22.1256944 73.7713889,18.38125 C73.7713889,12.9270833 69.3338889,8.49097222 63.8811111,8.49097222 Z" id="Fill-17" fill="#F18A00" mask="url(#mask-2)"></path>
                    </g>
                </g>
            </g>
        </g>
    </g>
</svg>