<?xml version="1.0" encoding="UTF-8"?>
<svg width="77px" height="76px" viewBox="0 0 77 76" version="1.1" xmlns="http://www.w3.org/2000/svg" xmlns:xlink="http://www.w3.org/1999/xlink">
    <!-- Generator: Sketch 51.3 (57544) - http://www.bohemiancoding.com/sketch -->
    <title>Group 11</title>
    <desc>Created with Sketch.</desc>
    <defs>
        <polygon id="path-1" points="0 0.7397375 22.8827932 0.7397375 22.8827932 22.683175 0 22.683175"></polygon>
        <polygon id="path-3" points="0.326558491 0.254814815 74.0593208 0.254814815 74.0593208 76 0.326558491 76"></polygon>
    </defs>
    <g id="Welcome" stroke="none" stroke-width="1" fill="none" fill-rule="evenodd">
        <g id="1376_LP#1---Design-[R2]-v2" transform="translate(-1070.000000, -1189.000000)">
            <g id="Group-21" transform="translate(942.000000, 1189.000000)">
                <g id="Group-11" transform="translate(128.000000, 0.000000)">
                    <path d="M38.5,27.7870249 C41.0367221,27.7870249 43.1008891,29.7713865 43.1008891,32.2114268 L43.1008891,35.7899667 C43.1008891,38.2286135 41.0367221,40.2129751 38.5,40.2129751 C35.9632779,40.2129751 33.8991109,38.2286135 33.8991109,35.7899667 L33.8991109,32.2114268 C33.8991109,29.7713865 35.9632779,27.7870249 38.5,27.7870249 M31,32.2114268 L31,35.7899667 C31,39.7656577 34.3644182,43 38.5,43 C42.6355818,43 46,39.7656577 46,35.7899667 L46,32.2114268 C46,28.2343423 42.6355818,25 38.5,25 C34.3644182,25 31,28.2343423 31,32.2114268" id="Fill-1" fill="#F18A00"></path>
                    <path d="M25.4488481,27 C25.8358841,27 26.1997269,26.8620358 26.4736962,26.6113123 C28.5494846,24.7116507 31.131174,23.3253753 33.9433455,22.6037162 C34.7116191,22.4034027 35.1609867,21.6698044 34.9464499,20.9667173 C34.7319131,20.26761 33.9360976,19.8523907 33.1576769,20.0487245 C29.8714951,20.8937555 26.8505852,22.5148354 24.4240001,24.7355291 C23.8586666,25.2528951 23.8586666,26.0939463 24.4240001,26.6113123 C24.6979694,26.8620358 25.0618122,27 25.4488481,27 Z" id="Fill-3" fill="#F18A00"></path>
                    <g id="Group-7" transform="translate(0.000000, 6.000000)">
                        <mask id="mask-2" fill="white">
                            <use xlink:href="#path-1"></use>
                        </mask>
                        <g id="Clip-6"></g>
                        <path d="M10.7743059,3.6147375 C15.1578353,3.6147375 18.7253647,7.2458625 18.7253647,11.7107375 C18.7253647,16.174175 15.1578353,19.808175 10.7743059,19.808175 C6.39077647,19.808175 2.82324706,16.174175 2.82324706,11.7107375 C2.82324706,7.2458625 6.39077647,3.6147375 10.7743059,3.6147375 M10.7743059,22.683175 C13.7686588,22.683175 16.4806588,21.4311125 18.4345412,19.4143 L20.6185412,21.096175 C20.8656,21.2873625 21.1606588,21.3879875 21.4698353,21.3879875 C21.9159529,21.3879875 22.3267765,21.1809875 22.5978353,20.8173 C22.8251294,20.5111125 22.9211294,20.13305 22.8688941,19.75355 C22.8180706,19.3726125 22.6232471,19.0362375 22.3225412,18.8048 L20.1357176,17.1214875 C21.0307765,15.52155 21.5488941,13.678675 21.5488941,11.7107375 C21.5488941,5.6617375 16.7150118,0.7397375 10.7743059,0.7397375 C4.8336,0.7397375 -0.000282352941,5.6617375 -0.000282352941,11.7107375 C-0.000282352941,17.761175 4.8336,22.683175 10.7743059,22.683175" id="Fill-5" fill="#F18A00" mask="url(#mask-2)"></path>
                    </g>
                    <g id="Group-10" transform="translate(2.000000, 0.000000)">
                        <mask id="mask-4" fill="white">
                            <use xlink:href="#path-3"></use>
                        </mask>
                        <g id="Clip-9"></g>
                        <path d="M47.3576528,62.3952407 C50.3388604,62.3952407 52.7636906,64.8064815 52.7636906,67.7724074 C52.7636906,70.7369074 50.3388604,73.1481481 47.3576528,73.1481481 C44.3764453,73.1481481 41.9501811,70.7369074 41.9501811,67.7724074 C41.9501811,64.8064815 44.3764453,62.3952407 47.3576528,62.3952407 M10.1463321,70.0111111 C6.31335094,70.0111111 3.19448302,66.9097222 3.19448302,63.0982222 C3.19448302,59.2867222 6.31335094,56.1867593 10.1463321,56.1867593 C13.9793132,56.1867593 17.0967472,59.2867222 17.0967472,63.0982222 C17.0967472,66.9097222 13.9793132,70.0111111 10.1463321,70.0111111 M43.1747849,14.8962222 C39.9067849,14.8962222 37.2467849,12.2525556 37.2467849,9.00144444 C37.2467849,5.75033333 39.9067849,3.10666667 43.1747849,3.10666667 C46.4442189,3.10666667 49.1042189,5.75033333 49.1042189,9.00144444 C49.1042189,12.2525556 46.4442189,14.8962222 43.1747849,14.8962222 M66.6430113,40.329037 C69.1510113,40.329037 71.1915396,42.3581296 71.1915396,44.8520741 C71.1915396,47.3445926 69.1510113,49.3736852 66.6430113,49.3736852 C64.1364453,49.3736852 62.095917,47.3445926 62.095917,44.8520741 C62.095917,42.3581296 64.1364453,40.329037 66.6430113,40.329037 M66.6430113,37.4771852 C63.5929736,37.4771852 60.9716906,39.3194815 59.8345585,41.9417593 L55.4910868,41.0191852 C56.1263321,35.2741296 54.2464075,29.3066296 49.8269358,24.9119259 C47.5569736,22.6532593 44.8482189,21.0305556 41.8655774,20.0880185 L42.4621057,17.7124259 C42.6987094,17.7323889 42.9353132,17.7480741 43.1747849,17.7480741 C48.0258792,17.7480741 51.9721434,13.8239259 51.9721434,9.00144444 C51.9721434,4.17896296 48.0258792,0.254814815 43.1747849,0.254814815 C38.3251245,0.254814815 34.3788604,4.17896296 34.3788604,9.00144444 C34.3788604,12.5890741 36.5642189,15.6776296 39.6802189,17.0251296 L39.0779547,19.4221111 C38.7180302,19.3636481 38.3595396,19.2980556 37.9938792,19.2581296 C37.2080679,19.1911111 36.5082943,19.7500741 36.4208226,20.5215 C36.3792377,20.8993704 36.4882189,21.271537 36.7276906,21.5681296 C36.9671623,21.8661481 37.3084453,22.0529444 37.6898792,22.0942963 C41.5501057,22.5177963 45.0461057,24.1889815 47.7993132,26.9281852 C50.9956151,30.1051481 52.7565208,34.3387222 52.7565208,38.8475 C52.7565208,43.0169074 51.2336528,46.9396296 48.4790113,50.0210556 C47.2859547,46.182463 43.6824075,43.3833704 39.4350113,43.3833704 L32.190634,43.3833704 C30.5401434,43.3833704 28.9154642,43.8125741 27.4929736,44.6225 C27.1602943,44.8121481 26.9208226,45.1187222 26.8204453,45.4866111 C26.7200679,45.8530741 26.7688226,46.2380741 26.9581057,46.566037 C27.1488226,46.8997037 27.4571245,47.1378333 27.8256528,47.2376481 C28.1941811,47.3346111 28.5827849,47.2875556 28.9168981,47.0979074 C29.9092,46.5332407 31.0420302,46.2352222 32.190634,46.2352222 L39.4350113,46.2352222 C42.9052,46.2352222 45.7272377,48.9230926 45.982483,52.3096667 C39.9713132,56.7999074 31.6371245,56.7970556 25.6316906,52.3011111 C25.7191623,51.1332778 26.0977283,50.0153519 26.7731245,49.0514259 C26.9910868,48.7377222 27.0742566,48.3584259 27.0082943,47.9848333 C26.9394642,47.6098148 26.7286717,47.2818519 26.4160679,47.066537 C25.7722189,46.6187963 24.8745585,46.7785 24.4199925,47.4201667 C23.8550113,48.2258148 23.4291245,49.107037 23.1452,50.031037 C18.4575774,44.7722222 17.5125962,37.0052037 20.9196906,30.7867407 C21.2982566,30.0980185 21.0415774,29.2296296 20.3432377,28.8503333 C19.647766,28.4767407 18.7787849,28.7348333 18.4016528,29.4221296 C14.5686717,36.4162963 15.4462566,45.0816481 20.3934264,51.2031481 L16.1015774,55.3540185 C14.4467849,54.0935 12.3861811,53.3349074 10.1463321,53.3349074 C4.73169057,53.3349074 0.326558491,57.7153519 0.326558491,63.0982222 C0.326558491,68.4825185 4.73169057,72.862963 10.1463321,72.862963 C15.5609736,72.862963 19.9646717,68.4825185 19.9646717,63.0982222 C19.9646717,60.9693148 19.2692,59.002963 18.1005208,57.3973704 L22.3550868,53.285 C26.0260302,56.6715741 30.7667094,58.5466667 35.8128226,58.5466667 C37.890634,58.5466667 39.9168226,58.2201296 41.8412,57.6126852 L43.0686717,60.7482963 C40.6839925,62.1927593 39.0822566,64.7979259 39.0822566,67.7724074 C39.0822566,72.3082778 42.7947849,76 47.3576528,76 C51.9205208,76 55.6316151,72.3082778 55.6316151,67.7724074 C55.6316151,63.2351111 51.9205208,59.5433889 47.3576528,59.5433889 C46.8027094,59.5433889 46.2621057,59.6004259 45.7372755,59.7030926 L44.499766,56.5432407 C46.4470868,55.5978519 48.2524453,54.3487407 49.8269358,52.7830741 C52.4080679,50.2164074 54.1073132,47.106463 54.9633887,43.8254074 L59.2394642,44.7337222 C59.2394642,44.7750741 59.2279925,44.8121481 59.2279925,44.8520741 C59.2279925,48.9188148 62.5547849,52.225537 66.6430113,52.225537 C70.7326717,52.225537 74.0594642,48.9188148 74.0594642,44.8520741 C74.0594642,40.7867593 70.7326717,37.4771852 66.6430113,37.4771852" id="Fill-8" fill="#F18A00" mask="url(#mask-4)"></path>
                    </g>
                </g>
            </g>
        </g>
    </g>
</svg>