<?xml version="1.0" encoding="UTF-8"?>
<svg width="75px" height="75px" viewBox="0 0 75 75" version="1.1" xmlns="http://www.w3.org/2000/svg" xmlns:xlink="http://www.w3.org/1999/xlink">
    <!-- Generator: Sketch 51.3 (57544) - http://www.bohemiancoding.com/sketch -->
    <title>Group 14</title>
    <desc>Created with Sketch.</desc>
    <defs>
        <polygon id="path-1" points="1.34573529 0.482352941 42.1632353 0.482352941 42.1632353 41.3008824 1.34573529 41.3008824"></polygon>
    </defs>
    <g id="Welcome" stroke="none" stroke-width="1" fill="none" fill-rule="evenodd">
        <g id="1376_LP#1---Design-[R2]-v2" transform="translate(-683.000000, -1189.000000)">
            <g id="Group-18" transform="translate(547.000000, 1188.000000)">
                <g id="Group-14" transform="translate(136.000000, 0.000000)">
                    <path d="M2.94147059,40.8185294 C2.94147059,23.0494118 17.3988235,8.59205882 35.1694118,8.59205882 C52.9385294,8.59205882 67.3958824,23.0494118 67.3958824,40.8185294 C67.3958824,58.5891176 52.9385294,73.0464706 35.1694118,73.0464706 C17.3988235,73.0464706 2.94147059,58.5891176 2.94147059,40.8185294 M35.1694118,5.65088235 C15.7782353,5.65088235 0.00029411765,21.4258824 0.00029411765,40.8185294 C0.00029411765,60.2111765 15.7782353,75.9876471 35.1694118,75.9876471 C54.5620588,75.9876471 70.3370588,60.2111765 70.3370588,40.8185294 C70.3370588,21.4258824 54.5620588,5.65088235 35.1694118,5.65088235" id="Fill-1" fill="#F18A00"></path>
                    <path d="M35.1694118,65.5744118 C21.5194118,65.5744118 10.4135294,54.4685294 10.4135294,40.8185294 C10.4135294,27.1685294 21.5194118,16.0641176 35.1694118,16.0641176 C48.8194118,16.0641176 59.9238235,27.1685294 59.9238235,40.8185294 C59.9238235,54.4685294 48.8194118,65.5744118 35.1694118,65.5744118 M35.1694118,68.5155882 C50.4414706,68.5155882 62.865,56.0905882 62.865,40.8185294 C62.865,25.5464706 50.4414706,13.1229412 35.1694118,13.1229412 C19.8973529,13.1229412 7.47235294,25.5464706 7.47235294,40.8185294 C7.47235294,56.0905882 19.8973529,68.5155882 35.1694118,68.5155882" id="Fill-3" fill="#F18A00"></path>
                    <path d="M19.0533824,40.8185294 C19.0533824,31.9332353 26.2827941,24.7038235 35.1695588,24.7038235 C44.0548529,24.7038235 51.2842647,31.9332353 51.2842647,40.8185294 C51.2842647,49.7052941 44.0548529,56.9347059 35.1695588,56.9347059 C26.2827941,56.9347059 19.0533824,49.7052941 19.0533824,40.8185294 M35.1695588,21.7626471 C24.6607353,21.7626471 16.1122059,30.3097059 16.1122059,40.8185294 C16.1122059,51.3273529 24.6607353,59.8758824 35.1695588,59.8758824 C45.6769118,59.8758824 54.2254412,51.3273529 54.2254412,40.8185294 C54.2254412,30.3097059 45.6769118,21.7626471 35.1695588,21.7626471" id="Fill-5" fill="#F18A00"></path>
                    <path d="M8.63426471,68.0905882 L4.26955882,72.4567647 C4.12691176,72.5994118 3.93867647,72.6714706 3.75044118,72.6714706 C3.56220588,72.6714706 3.37397059,72.5994118 3.22985294,72.4567647 C2.94308824,72.17 2.94308824,71.7038235 3.22985294,71.4170588 L7.59455882,67.0508824 C7.88132353,66.7641176 8.3475,66.7641176 8.63426471,67.0508824 C8.92102941,67.3376471 8.92102941,67.8038235 8.63426471,68.0905882 M7.07397059,66.5302941 L2.71073529,70.8964706 C2.13720588,71.47 2.13720588,72.4038235 2.71073529,72.9758824 C2.98720588,73.2538235 3.35779412,73.4067647 3.75044118,73.4067647 C4.14161765,73.4067647 4.51220588,73.2538235 4.79014706,72.9758824 L9.15485294,68.6111765 C9.72691176,68.0376471 9.72691176,67.1038235 9.15485294,66.5302941 C8.57985294,65.9567647 7.64897059,65.9567647 7.07397059,66.5302941" id="Fill-7" fill="#F18A00"></path>
                    <path d="M7.59455882,67.0507353 L3.22985294,71.4169118 C2.94308824,71.7036765 2.94308824,72.1698529 3.22985294,72.4566176 C3.37397059,72.5992647 3.56220588,72.6713235 3.75044118,72.6713235 C3.93867647,72.6713235 4.12691176,72.5992647 4.26955882,72.4566176 L8.63426471,68.0904412 C8.92102941,67.8036765 8.92102941,67.3375 8.63426471,67.0507353 C8.3475,66.7639706 7.88132353,66.7639706 7.59455882,67.0507353" id="Fill-9" fill="#F18A00"></path>
                    <path d="M67.1088235,72.4563235 C66.9647059,72.6004412 66.7764706,72.6710294 66.5882353,72.6710294 C66.4014706,72.6710294 66.2132353,72.6004412 66.0691176,72.4563235 L61.7029412,68.0901471 C61.4161765,67.8033824 61.4161765,67.3386765 61.7029412,67.0504412 C61.9911765,66.7636765 62.4558824,66.7636765 62.7426471,67.0504412 L67.1088235,71.4166176 C67.3955882,71.7033824 67.3955882,72.1695588 67.1088235,72.4563235 M67.6294118,70.8960294 L63.2632353,66.5313235 C62.6882353,65.9563235 61.7573529,65.9563235 61.1838235,66.5313235 C60.6102941,67.1033824 60.6102941,68.0372059 61.1838235,68.6107353 L65.5485294,72.9769118 C65.8264706,73.2533824 66.1970588,73.4063235 66.5882353,73.4063235 C66.9808824,73.4063235 67.3514706,73.2533824 67.6294118,72.9769118 C68.2014706,72.4033824 68.2014706,71.4695588 67.6294118,70.8960294" id="Fill-11" fill="#F18A00"></path>
                    <path d="M62.7429412,67.0507353 C62.4561765,66.7639706 61.99,66.7639706 61.7032353,67.0507353 C61.4164706,67.3375 61.4164706,67.8036765 61.7032353,68.0904412 L66.0694118,72.4566176 C66.2120588,72.5992647 66.4002941,72.6713235 66.5885294,72.6713235 C66.7767647,72.6713235 66.965,72.5992647 67.1091176,72.4566176 C67.3958824,72.1698529 67.3958824,71.7036765 67.1091176,71.4169118 L62.7429412,67.0507353 Z" id="Fill-13" fill="#F18A00"></path>
                    <g id="Group-17" transform="translate(32.352941, 0.988088)">
                        <mask id="mask-2" fill="white">
                            <use xlink:href="#path-1"></use>
                        </mask>
                        <g id="Clip-16"></g>
                        <path d="M40.6927941,5.09941176 L37.5472059,5.09941176 L37.5472059,1.95235294 C37.5472059,1.14205882 36.8883824,0.481764706 36.0766176,0.481764706 C35.2663235,0.481764706 34.6060294,1.14205882 34.6060294,1.95235294 L34.6060294,5.96117647 L34.5339706,6.03470588 L34.5339706,4.96852941 C34.5339706,4.15676471 33.8736765,3.49794118 33.0633824,3.49794118 C32.2516176,3.49794118 31.5927941,4.15676471 31.5927941,4.96852941 L31.5927941,8.97588235 L31.5177941,9.05088235 L31.5177941,7.98323529 C31.5177941,7.17147059 30.8589706,6.51264706 30.0472059,6.51264706 C29.2354412,6.51264706 28.5766176,7.17147059 28.5766176,7.98323529 L28.5766176,11.9920588 L4.28691176,36.2802941 L4.28691176,35.2155882 C4.28691176,34.4038235 3.62808824,33.745 2.81632353,33.745 C2.00455882,33.745 1.34573529,34.4038235 1.34573529,35.2155882 L1.34573529,39.8302941 C1.34573529,39.8773529 1.36779412,39.9170588 1.37220588,39.9626471 C1.38544118,40.1082353 1.40161765,40.2552941 1.45897059,40.3920588 C1.52955882,40.5626471 1.6325,40.7141176 1.75897059,40.845 C1.76632353,40.8523529 1.76779412,40.8626471 1.77661765,40.87 C1.79573529,40.8891176 1.82073529,40.8964706 1.83985294,40.9141176 C1.96191176,41.0229412 2.09426471,41.1229412 2.24720588,41.1861765 C2.42661765,41.2611765 2.61779412,41.3008824 2.81632353,41.3008824 L7.4325,41.3008824 C8.24426471,41.3008824 8.90308824,40.6420588 8.90308824,39.8302941 C8.90308824,39.0185294 8.24426471,38.3597059 7.4325,38.3597059 L6.36632353,38.3597059 L30.6560294,14.0714706 L34.6619118,14.0714706 C35.4736765,14.0714706 36.1325,13.4111765 36.1325,12.6008824 C36.1325,11.7891176 35.4736765,11.1302941 34.6619118,11.1302941 L33.5972059,11.1302941 L33.6722059,11.0552941 L37.6780882,11.0552941 C38.4898529,11.0552941 39.1486765,10.3964706 39.1486765,9.58470588 C39.1486765,8.77294118 38.4898529,8.11411765 37.6780882,8.11411765 L36.6133824,8.11411765 L36.6854412,8.04058824 L40.6927941,8.04058824 C41.5045588,8.04058824 42.1633824,7.38176471 42.1633824,6.57 C42.1633824,5.75823529 41.5045588,5.09941176 40.6927941,5.09941176" id="Fill-15" fill="#F18A00" mask="url(#mask-2)"></path>
                    </g>
                </g>
            </g>
        </g>
    </g>
</svg>