<?xml version="1.0" encoding="UTF-8"?>
<svg width="74px" height="74px" viewBox="0 0 74 74" version="1.1" xmlns="http://www.w3.org/2000/svg" xmlns:xlink="http://www.w3.org/1999/xlink">
    <!-- Generator: Sketch 51.3 (57544) - http://www.bohemiancoding.com/sketch -->
    <title>Group 13@2x</title>
    <desc>Created with Sketch.</desc>
    <defs>
        <polygon id="path-1" points="0.000115384615 0.419538462 45.3693462 0.419538462 45.3693462 58.8461538 0.000115384615 58.8461538"></polygon>
        <polygon id="path-3" points="0.304961538 0.304269231 48.4661538 0.304269231 48.4661538 48.4542692 0.304961538 48.4542692"></polygon>
    </defs>
    <g id="Welcome" stroke="none" stroke-width="1" fill="none" fill-rule="evenodd">
        <g id="1376_LP#1---Design-[R2]-v2" transform="translate(-1065.000000, -925.000000)">
            <g id="Group-2" transform="translate(955.000000, 925.000000)">
                <g id="Group-13" transform="translate(110.000000, 0.000000)">
                    <g id="Group-3" transform="translate(0.000000, 15.005654)">
                        <mask id="mask-2" fill="white">
                            <use xlink:href="#path-1"></use>
                        </mask>
                        <g id="Clip-2"></g>
                        <path d="M20.6885769,9.68838462 L20.6885769,54.9260769 C20.6885769,55.3564615 20.4681923,55.7533846 20.1105,55.9622308 C18.1755,57.093 16.0155,56.0164615 15.1120385,55.4533846 L15.1120385,34.1106923 C15.1120385,33.4726154 14.5962692,32.9568462 13.9581923,32.9568462 C13.3212692,32.9568462 12.8043462,33.4726154 12.8043462,34.1106923 L12.8043462,55.5237692 C10.9547308,57.0722308 8.93088462,56.4756923 7.84742308,55.938 C7.44819231,55.7395385 7.20126923,55.3287692 7.20126923,54.8637692 L7.20126923,10.1453077 C7.20126923,9.50723077 6.68319231,8.99146154 6.04742308,8.99146154 C5.4105,8.99146154 4.89357692,9.50723077 4.89357692,10.1453077 L4.89357692,26.1883846 C3.40511538,25.7660769 2.30780769,24.4114615 2.30780769,22.7903077 L2.30780769,10.2260769 C2.30780769,6.28915385 5.35742308,3.05146154 9.21819231,2.74915385 L13.0120385,8.22876923 C13.2416538,8.55992308 13.6155,8.74223077 14.0308846,8.72376923 C14.4335769,8.69953846 14.7947308,8.46530769 14.9828077,8.10876923 L17.8097308,2.72723077 L43.0062692,2.72723077 C42.7385769,4.098 41.5293462,5.13646154 40.0812692,5.13646154 L25.2405,5.13646154 C22.7320385,5.13646154 20.6885769,7.17761538 20.6885769,9.68838462 M45.3693462,2.15607692 L45.3693462,1.57338462 C45.3693462,0.935307692 44.8524231,0.419538462 44.2155,0.419538462 L17.1116538,0.419538462 C16.6824231,0.419538462 16.2889615,0.657230769 16.0905,1.03684615 L13.8255,5.34876923 L10.7562692,0.915692308 C10.5393462,0.605307692 10.1851154,0.419538462 9.80665385,0.419538462 C4.39973077,0.419538462 0.000115384615,4.818 0.000115384615,10.2260769 L0.000115384615,22.7903077 C0.000115384615,25.6899231 2.12319231,28.0853077 4.89357692,28.548 L4.89357692,54.8637692 C4.89357692,56.2103077 5.63088462,57.4137692 6.81819231,58.0033846 C7.51626923,58.3518462 8.76819231,58.8468462 10.2324231,58.8468462 C11.4255,58.8468462 12.7581923,58.5099231 14.0493462,57.5072308 C14.9412692,58.0449231 16.4758846,58.7799231 18.2424231,58.7799231 C19.2128077,58.7799231 20.2466538,58.5572308 21.2758846,57.9537692 C22.3385769,57.3318462 22.9962692,56.1722308 22.9962692,54.9260769 L22.9962692,9.68838462 C22.9962692,8.45146154 24.0035769,7.44415385 25.2405,7.44415385 L40.0812692,7.44415385 C42.9970385,7.44415385 45.3693462,5.07184615 45.3693462,2.15607692" id="Fill-1" fill="#F18A00" mask="url(#mask-2)"></path>
                    </g>
                    <path d="M13.9605,2.30780769 C16.7216538,2.30780769 18.9670385,4.55319231 18.9670385,7.31434615 C18.9670385,10.0731923 16.7216538,12.3197308 13.9605,12.3197308 C11.1993462,12.3197308 8.95396154,10.0731923 8.95396154,7.31434615 C8.95396154,4.55319231 11.1993462,2.30780769 13.9605,2.30780769 M13.9605,14.6274231 C17.9931923,14.6274231 21.2747308,11.3470385 21.2747308,7.31434615 C21.2747308,3.28165385 17.9931923,0.000115384615 13.9605,0.000115384615 C9.92780769,0.000115384615 6.64626923,3.28165385 6.64626923,7.31434615 C6.64626923,11.3470385 9.92780769,14.6274231 13.9605,14.6274231" id="Fill-4" fill="#F18A00"></path>
                    <g id="Group-8" transform="translate(25.384615, 25.390269)">
                        <mask id="mask-4" fill="white">
                            <use xlink:href="#path-3"></use>
                        </mask>
                        <g id="Clip-7"></g>
                        <path d="M24.3857308,46.1465769 C12.3857308,46.1465769 2.61265385,36.3850385 2.61265385,24.3735 C2.61265385,12.3735 12.3857308,2.61196154 24.3857308,2.61196154 C36.3857308,2.61196154 46.1588077,12.3735 46.1588077,24.3735 C46.1588077,36.3850385 36.3857308,46.1465769 24.3857308,46.1465769 M24.3857308,0.304269231 C11.1049615,0.304269231 0.304961538,11.1042692 0.304961538,24.3735 C0.304961538,37.6542692 11.1049615,48.4542692 24.3857308,48.4542692 C37.6665,48.4542692 48.4665,37.6542692 48.4665,24.3735 C48.4665,11.1042692 37.6665,0.304269231 24.3857308,0.304269231" id="Fill-6" fill="#F18A00" mask="url(#mask-4)"></path>
                    </g>
                    <path d="M64.5280385,41.8022308 L52.8280385,49.1983846 C52.8626538,49.383 52.8857308,49.5791538 52.8857308,49.7637692 C52.8857308,51.483 51.4895769,52.8791538 49.7703462,52.8791538 C48.0511154,52.8791538 46.6549615,51.483 46.6549615,49.7637692 C46.6549615,48.0560769 48.0511154,46.6483846 49.7703462,46.6483846 C50.4511154,46.6483846 51.0741923,46.8791538 51.5934231,47.2483846 L63.2934231,39.8522308 C63.8357308,39.5176154 64.5511154,39.6791538 64.8857308,40.2099231 C65.2318846,40.7522308 65.0703462,41.4676154 64.5280385,41.8022308" id="Fill-9" fill="#F18A00"></path>
                    <path d="M60.7836923,38.7520385 C61.2336923,39.2055 61.9640769,39.2031923 62.4152308,38.7543462 C62.8675385,38.3031923 62.8675385,37.5739615 62.4175385,37.1228077 C59.0448462,33.7431923 54.5540769,31.8820385 49.7690769,31.8820385 C39.9094615,31.8820385 31.8890769,39.9058846 31.8890769,49.7689615 C31.8890769,50.4070385 32.4048462,50.9228077 33.0429231,50.9228077 C33.6798462,50.9228077 34.1967692,50.4070385 34.1967692,49.7689615 C34.1967692,41.1785769 41.1833077,34.1897308 49.7690769,34.1897308 C53.9356154,34.1897308 57.8471538,35.8097308 60.7836923,38.7520385" id="Fill-11" fill="#F18A00"></path>
                </g>
            </g>
        </g>
    </g>
</svg>