<?xml version="1.0" encoding="UTF-8"?>
<svg width="87px" height="67px" viewBox="0 0 87 67" version="1.1" xmlns="http://www.w3.org/2000/svg" xmlns:xlink="http://www.w3.org/1999/xlink">
    <!-- Generator: Sketch 51.3 (57544) - http://www.bohemiancoding.com/sketch -->
    <title>Group 8</title>
    <desc>Created with Sketch.</desc>
    <defs>
        <polygon id="path-1" points="0 0 87 0 87 67 0 67"></polygon>
    </defs>
    <g id="Welcome" stroke="none" stroke-width="1" fill="none" fill-rule="evenodd">
        <g id="1376_LP#1---Design-[R2]-v2" transform="translate(-307.000000, -1197.000000)">
            <g id="Group-26" transform="translate(307.000000, 1197.000000)">
                <g id="Group-8">
                    <mask id="mask-2" fill="white">
                        <use xlink:href="#path-1"></use>
                    </mask>
                    <g id="Clip-2"></g>
                    <path d="M10.6685826,58.2827777 L18.3300831,58.2827777 L18.3300831,34.7158644 L10.6685826,34.7158644 L10.6685826,58.2827777 Z M9.33429129,61 L19.6657087,61 C20.4009032,61 21,60.3916464 21,59.6420678 L21,33.3579322 C21,32.6069957 20.4009032,32 19.6657087,32 L9.33429129,32 C8.59909679,32 8,32.6069957 8,33.3579322 L8,59.6420678 C8,60.3916464 8.59909679,61 9.33429129,61 Z" id="Fill-1" fill="#F18A00" mask="url(#mask-2)"></path>
                    <path d="M30.6691305,59.2287565 L38.3308695,59.2287565 L38.3308695,21.7726291 L30.6691305,21.7726291 L30.6691305,59.2287565 Z M29.3345652,19 C28.5965507,19 28,19.6207585 28,20.3856218 L28,60.6143782 C28,61.3792415 28.5965507,62 29.3345652,62 L39.6654348,62 C40.4034493,62 41,61.3792415 41,60.6143782 L41,20.3856218 C41,19.6207585 40.4034493,19 39.6654348,19 L29.3345652,19 Z" id="Fill-3" fill="#F18A00" mask="url(#mask-2)"></path>
                    <path d="M49.6688565,58.2988617 L57.3311435,58.2988617 L57.3311435,42.7011383 L49.6688565,42.7011383 L49.6688565,58.2988617 Z M48.3344282,40 C47.5978239,40 47,40.6037044 47,41.3505692 L47,59.6494308 C47,60.394945 47.5978239,61 48.3344282,61 L58.6655718,61 C59.4035106,61 60,60.394945 60,59.6494308 L60,41.3505692 C60,40.6037044 59.4035106,40 58.6655718,40 L48.3344282,40 Z" id="Fill-4" fill="#F18A00" mask="url(#mask-2)"></path>
                    <path d="M67.6688565,58.2742434 L75.3311435,58.2742434 L75.3311435,26.7243944 L67.6688565,26.7243944 L67.6688565,58.2742434 Z M65,25.3621972 L65,59.6378028 C65,60.3897357 65.5978239,61 66.3344282,61 L76.6655718,61 C77.4021761,61 78,60.3897357 78,59.6378028 L78,25.3621972 C78,24.6102643 77.4021761,24 76.6655718,24 L66.3344282,24 C65.5978239,24 65,24.6102643 65,25.3621972 Z" id="Fill-5" fill="#F18A00" mask="url(#mask-2)"></path>
                    <path d="M85.640625,64 L1.359375,64 C0.607640625,64 0,64.6705 0,65.5 C0,66.3295 0.607640625,67 1.359375,67 L85.640625,67 C86.391,67 87,66.3295 87,65.5 C87,64.6705 86.391,64 85.640625,64" id="Fill-6" fill="#F18A00" mask="url(#mask-2)"></path>
                    <path d="M15.6643061,16.2579819 C16.7200642,16.2579819 17.5792423,17.1252414 17.5792423,18.195743 C17.5792423,19.2620683 16.7200642,20.1321119 15.6643061,20.1321119 C14.6071734,20.1321119 13.7493699,19.2620683 13.7493699,18.195743 C13.7493699,17.1252414 14.6071734,16.2579819 15.6643061,16.2579819 M34.5552269,2.78413939 C35.610985,2.78413939 36.4701631,3.65418294 36.4701631,4.72329247 C36.4701631,5.79100992 35.610985,6.66105348 34.5552269,6.66105348 C33.4994689,6.66105348 32.6416655,5.79100992 32.6416655,4.72329247 C32.6416655,3.65418294 33.4994689,2.78413939 34.5552269,2.78413939 M55.3597092,26.2767075 C55.3597092,27.3458171 54.5019058,28.2158606 53.4447731,28.2158606 C52.3903897,28.2158606 51.5312116,27.3458171 51.5312116,26.2767075 C51.5312116,25.2089901 52.3903897,24.3389465 53.4447731,24.3389465 C54.5019058,24.3389465 55.3597092,25.2089901 55.3597092,26.2767075 M72.3370686,8.17284117 C73.3928266,8.17284117 74.2506301,9.04288473 74.2506301,10.1119943 C74.2506301,11.1811038 73.3928266,12.0511473 72.3370686,12.0511473 C71.2813105,12.0511473 70.4221324,11.1811038 70.4221324,10.1119943 C70.4221324,9.04288473 71.2813105,8.17284117 72.3370686,8.17284117 M15.6643061,22.9162513 C18.234967,22.9162513 20.3286122,20.8003054 20.3286122,18.195743 C20.3286122,17.6834613 20.2268855,17.2018052 20.0784195,16.7410301 L31.7233759,8.44986304 C32.5110704,9.06515784 33.485722,9.44519287 34.5552269,9.44519287 C35.2411947,9.44519287 35.8886713,9.28649692 36.4770365,9.0164354 L49.4705588,23.8405856 C49.0416571,24.5547173 48.7818417,25.3829988 48.7818417,26.2767075 C48.7818417,28.8812699 50.8741122,31 53.4447731,31 C56.0168086,31 58.1090792,28.8812699 58.1090792,26.2767075 C58.1090792,25.626611 57.9784841,25.00714 57.7420383,24.4433517 L69.8310179,14.0835691 C70.5568516,14.5526966 71.4132803,14.8352867 72.3370686,14.8352867 C74.9091042,14.8352867 77,12.7165566 77,10.1119943 C77,7.50743186 74.9091042,5.38870178 72.3370686,5.38870178 C69.765033,5.38870178 67.6727625,7.50743186 67.6727625,10.1119943 C67.6727625,10.7704432 67.8074816,11.3954825 68.0466768,11.9634469 L55.96732,22.3176613 C55.238737,21.8401814 54.3754348,21.5548071 53.4447731,21.5548071 C52.7574306,21.5548071 52.1113287,21.7162872 51.5229635,21.9863487 L38.5294412,7.16219857 C38.9569682,6.44806682 39.219533,5.61839328 39.219533,4.72329247 C39.219533,2.11873007 37.1258878,0 34.5552269,0 C31.9831914,0 29.8922955,2.11873007 29.8922955,4.72329247 C29.8922955,5.23278998 29.9912728,5.71305402 30.1383641,6.17243702 L18.4920331,14.4663883 C17.7043386,13.8524855 16.7310616,13.4738426 15.6643061,13.4738426 C13.0922705,13.4738426 11,15.5911806 11,18.195743 C11,20.8003054 13.0922705,22.9162513 15.6643061,22.9162513" id="Fill-7" fill="#F18A00" mask="url(#mask-2)"></path>
                </g>
            </g>
        </g>
    </g>
</svg>