<?xml version="1.0" encoding="utf-8"?>
<!-- Generator: Adobe Illustrator 22.1.0, SVG Export Plug-In . SVG Version: 6.00 Build 0)  -->
<svg version="1.1" id="Layer_1" xmlns="http://www.w3.org/2000/svg" xmlns:xlink="http://www.w3.org/1999/xlink" x="0px" y="0px"
	 viewBox="0 0 307 268" style="enable-background:new 0 0 307 268;" xml:space="preserve">
<style type="text/css">
	.st0{enable-background:new    ;}
	.st1{fill:#FFFFFF;}
</style>
<title>“</title>
<desc>Created with Sketch.</desc>
<g id="Page-1">
	<g id="home2.0" transform="translate(0.000000, -2757.000000)">
		<g class="st0">
			<g>
				<path class="st1" d="M0,2935c0-80,37-138,106-178l24,39c-51,33-76,68-76,124c3-1,6-1,9-1c27,0,53,18,53,51c0,34-22,55-53,55
					C23,3025,0,2993,0,2935z M177,2935c0-80,37-138,106-178l24,39c-51,33-76,68-76,124c3-1,6-1,9-1c27,0,53,18,53,51
					c0,34-22,55-53,55C200,3025,177,2993,177,2935z"/>
			</g>
		</g>
	</g>
</g>
</svg>
