<svg id="outlined_icons" data-name="outlined icons" xmlns="http://www.w3.org/2000/svg" viewBox="0 0 250 250"><defs><style>.cls-1{fill:#0c62fb;}</style></defs><title>17-icon</title><path class="cls-1" d="M193.84,64.2a87.18,87.18,0,0,1,20.3,48.74H229.2a102.18,102.18,0,0,0-24.72-59.38Z"/><path class="cls-1" d="M60.22,64,49.59,53.31a102.16,102.16,0,0,0-24.94,59.63H39.71A87.17,87.17,0,0,1,60.22,64Z"/><path class="cls-1" d="M119.82,222.91v-15a87.19,87.19,0,0,1-49.3-20.35L59.88,198.15A102.12,102.12,0,0,0,119.82,222.91Z"/><path class="cls-1" d="M59.92,176.9a87.09,87.09,0,0,1-20.24-49h-15a102.14,102.14,0,0,0,24.65,59.6Z"/><path class="cls-1" d="M134.82,207.8v15.06a102.1,102.1,0,0,0,59.39-24.92L183.58,187.3A87.17,87.17,0,0,1,134.82,207.8Z"/><path class="cls-1" d="M214.17,127.94a87.14,87.14,0,0,1-20,48.71l10.64,10.64a102.11,102.11,0,0,0,24.44-59.35Z"/><path class="cls-1" d="M70.88,53.39a87.19,87.19,0,0,1,48.94-20.06v-15A102.12,102.12,0,0,0,60.24,42.75Z"/><path class="cls-1" d="M193.86,43a102.18,102.18,0,0,0-59-24.62V33.4a87.16,87.16,0,0,1,48.4,20.2Z"/><path class="cls-1" d="M126.92,63.28a57.32,57.32,0,0,0,0,114.64,58.65,58.65,0,0,0,7.9-.55,57.13,57.13,0,0,0,27.27-11.55,57.93,57.93,0,0,0,10.54-10.68,57.38,57.38,0,0,0,11.61-34.54,58.65,58.65,0,0,0-.52-7.66,57.09,57.09,0,0,0-11.38-27.25A57.82,57.82,0,0,0,161.73,75.1a57.48,57.48,0,0,0-34.81-11.82ZM151,85.82a42.62,42.62,0,0,1,10.62,10.6,42.14,42.14,0,0,1,6.92,16.52,42.87,42.87,0,0,1,.7,7.66,43.37,43.37,0,0,1-.64,7.34,42.22,42.22,0,0,1-6.7,16.46,42.66,42.66,0,0,1-10.52,10.71,42.3,42.3,0,0,1-24.46,7.81,41.57,41.57,0,0,1-7.1-.61,42,42,0,0,1-17.08-7,42.74,42.74,0,0,1-10.59-10.62,42.19,42.19,0,0,1-6.9-16.74,43.37,43.37,0,0,1-.65-7.34,42.87,42.87,0,0,1,.71-7.66,42.25,42.25,0,0,1,7.11-16.8,42.75,42.75,0,0,1,10.7-10.51,42.43,42.43,0,0,1,23.8-7.35,42.83,42.83,0,0,1,7.9.75A42.17,42.17,0,0,1,151,85.82Z"/></svg>