<svg id="outlined_icons" data-name="outlined icons" xmlns="http://www.w3.org/2000/svg" viewBox="0 0 250 250"><defs><style>.cls-1{fill:#0c62fb;}</style></defs><title>22-icon</title><path class="cls-1" d="M124.82,54.27A113,113,0,0,0,12,167.12H27a97.86,97.86,0,0,1,195.71,0h15A113,113,0,0,0,124.82,54.27Z"/><path class="cls-1" d="M124.82,84.07a83.14,83.14,0,0,0-83,83.05h15a68,68,0,1,1,136.09,0h15A83.13,83.13,0,0,0,124.82,84.07Z"/><path class="cls-1" d="M163.1,167.12h15a53.29,53.29,0,1,0-106.57,0h15a38.29,38.29,0,1,1,76.57,0Z"/><path class="cls-1" d="M133.33,167.12h15a23.52,23.52,0,1,0-47,0h15a8.52,8.52,0,1,1,17,0Z"/></svg>