<svg id="outlined_icons" data-name="outlined icons" xmlns="http://www.w3.org/2000/svg" viewBox="0 0 250 250"><defs><style>.cls-1{fill:#0c62fb;}</style></defs><title>27-icon</title><path class="cls-1" d="M196.24,81.22c-9.16-9.15-23-30.33-23-41.38V35.79a23,23,0,0,0-46.06-.6,78.88,78.88,0,0,0,3.56,34.54h16.18C139.5,54.05,142,37.19,142.07,37l.1-.6v-.62a8,8,0,0,1,16.07,0v4.05c0,17.38,17.84,42.44,27.39,52,9,9,22,29.17,22,40.39h15C222.64,113.81,204.51,89.49,196.24,81.22Z"/><path class="cls-1" d="M90.3,173.76h.48l2.71,0-.13-15-2.71,0h-.36a42.54,42.54,0,0,1-29.9-12.39L49.78,157A57.64,57.64,0,0,0,90.3,173.76Z"/><path class="cls-1" d="M90.29,143.35h.49l2.71,0-.13-15-2.71,0A42.51,42.51,0,0,1,60.39,116l-10.61,10.6A57.63,57.63,0,0,0,90.29,143.35Z"/><path class="cls-1" d="M90.3,204.16h.48l2.71,0-.13-15-2.71,0h-.36a42.54,42.54,0,0,1-29.9-12.38L49.78,187.39A57.67,57.67,0,0,0,90.3,204.16Z"/><path class="cls-1" d="M90.27,234.57h.48l5.45,0H217.62v-15H96.17l-5.52,0h-.36a42.54,42.54,0,0,1-29.9-12.38l-10.61,10.6A57.62,57.62,0,0,0,90.27,234.57Z"/><path class="cls-1" d="M90.35,96h.35L109,96H153.1V81H109L90.78,81a57.83,57.83,0,0,0-35,11.55,56.36,56.36,0,0,0-6,5.22l10.61,10.61A42.58,42.58,0,0,1,90.35,96Z"/></svg>