<svg xmlns="http://www.w3.org/2000/svg" viewBox="0 0 250 250"><defs><style>.cls-1{fill:#0d61fa;}</style></defs><title>ANR Infotech Group_Website-Icon</title><g id="icons"><path class="cls-1" d="M88.93,239.35l30.4-52.67a86.78,86.78,0,0,1-15.67-2.86L86.88,212.89,77.71,201.5l-14.44-2.24,15.47-26.8A86.87,86.87,0,0,1,66.88,163L39.33,210.72l30.34,4.71Z"/><path class="cls-1" d="M167.12,212.89l-16.76-29a86.5,86.5,0,0,1-15.68,2.83l30.39,52.65,19.26-23.92,30.34-4.71L187.12,163a86.73,86.73,0,0,1-11.86,9.47l15.47,26.79-14.44,2.24Z"/><path class="cls-1" d="M73.92,150.81a72.34,72.34,0,0,0,11.64,9.84A74,74,0,0,0,127,173.43h.14a73.31,73.31,0,0,0,37.77-10.49c1.21-.73,2.39-1.5,3.55-2.29a73.57,73.57,0,1,0-94.52-9.84Zm61.42,7a57.66,57.66,0,0,1-16.66,0l-.74-.1a59,59,0,0,1-24.86-10.1A58.58,58.58,0,0,1,126.9,41.31a58.94,58.94,0,0,1,14.27,1.76,58.54,58.54,0,0,1,19.74,104.54c-1.21.86-2.45,1.7-3.75,2.48A58.36,58.36,0,0,1,136,157.74Z"/></g></svg>