<svg xmlns="http://www.w3.org/2000/svg" viewBox="0 0 250 250"><defs><style>.cls-1{fill:#0d61fa;}</style></defs><title>ANR Infotech Group_Website-Icon</title><g id="icons"><rect class="cls-1" x="161.64" y="57.92" width="28.11" height="15" transform="translate(5.17 143.33) rotate(-44.98)"/><rect class="cls-1" x="184.85" y="113.94" width="28.11" height="15"/><rect class="cls-1" x="168.19" y="163.42" width="15" height="28.11" transform="translate(-74.03 176.31) rotate(-45.02)"/><rect class="cls-1" x="112.17" y="186.62" width="15" height="28.11"/><rect class="cls-1" x="49.59" y="169.97" width="28.1" height="15" transform="translate(-106.85 96.98) rotate(-45)"/><rect class="cls-1" x="26.37" y="113.94" width="28.13" height="15"/><rect class="cls-1" x="56.15" y="51.37" width="15" height="28.1" transform="translate(-27.62 64.16) rotate(-45)"/><rect class="cls-1" x="112.17" y="28.15" width="15" height="28.13"/><path class="cls-1" d="M170.93,121.44a51.26,51.26,0,1,0-51.26,51.26A51.31,51.31,0,0,0,170.93,121.44ZM119.67,157.7a36.26,36.26,0,1,1,36.26-36.26A36.3,36.3,0,0,1,119.67,157.7Z"/></g></svg>